<svg xmlns="http://www.w3.org/2000/svg" viewBox="0 0 512 512">
  <path fill="#111823" d="M0 256V0h512v512H0Z"/>
  <path fill="#fd4553" d="m213 211-9 1h-15l-2 1h-10v1l-3 1h-1l-1 1h-4l-1 1h-1v1h-2v1l-1 1v1h-1l-2 2v2l-3 1v1h-1l-1 1v1h-2l-1 2h-1v6l-1 2v2l-4 3-1 5-2 3-1 1v1h-1l-2 2h-1v1l-1 1v2l-1 1-2 3-2 6-1 1v1l-1 2v1l-1 5-2 2v2l-3 3-2 4v1l-1 1-1 2v1l-1 2v6l-1 2v23l-1 2v3l-2 2v9l-1 2v20l-1 2v6l-1 1v1l-1 1-3 6-3 3v1l-1 2-1 1-2 4v1c-1 4-1 0-2 3l-1 2v4l-1 1v1l-4 4-4 5c-2 1 2-3-1 0l-2 2h-2v1h-2c-2 2 0-1-2 0v2h1l1 1h28v-1h4l1-1h7l2-1h13l2-1h1v-1h3l2-2h4s-1 0 0 0h2c1-2-4 0 1-2h2v-1h5l1-1h2l2-1h7l1-1h15v-1h1l4-3h2l2-1h10l1-1c4 0 0 0 2-1h1l1-2h1l1-1h1l3-3h1l1-1h1c4-2-2 1 1-1h1v-1h1l2-2h2l1-1h2l1-1h1c2-2-3 1 1-2 0 0 0 1 0 0h3v-1l4-1c1 1 1-1 2-2h5v-1h1l1-1 2-1v-1h2v-2h1l2-1 1-1 1-2 3-2v-1l1-2v-1h1l1-3 1-1 1-2 4-2v-1c0-1 0 0 0 0 2-2-2 0 1-2h1l1-2 1-2 1-2c1-2 1 1 3-2l1-3 3-3h1l1-1v-3c2-3 0 4 2-2v-2l2-4c1-4 3-3 4-8v-21l2-3 1-21v-8h-2l-3-8c-1-2 0-5-2-7h-2v-1l-4-4-2-3c-3-3-1 0-2 0v-1l-1-2-5-4h-1l-2-1-1-1h-1v-1h-2l-5-5h-1l-1-2c0-2-2 0-3-1l-1-2h-1l-1-1h-6l-8-8h-2l-2-1h-6c-8-2 4 0-3-2h-3l-5-2-4-1zm69 131c-2 3 1 0 0 0z"/>
  <path fill="#fd4553" d="M385 48h-10v2h-1l-1 3-2 2-1 2-2 1-1 2-1 1v2l-1 1-1 3v2h-1v1l-1 2-2 1-3 3-5 5v1l-3 3-4 3v1h-1l-2 1v1l-3 3-1 3c-2 4-1-1-2 4v2l-2 5-2 4-1 1v2l-1 1v1l-2 2h-1c-2 2 2 0-1 2h-1v1l-3 2v1l-4 4h-2l-3 2h-1l-1 1h-1v1l-2 2h-1l-2 1-5 6-2 1-3 6-7 7-1 2-2 2-2 5-5 7-5 11-2 2-1 2h-1l-1 1-3 3h-1l-1 1h-1l-1 1h-1l-2 1c-5 3 1-1-1 2h-1l-5 5-3 6-2 2v2h-1v3h-1v1l-1 1v3l-1 1v1h-1l-1 4h-1v3l-1 1v15l3 2 7 7 3 6h10l5-4h2c2 0 2-3 3-4 2 0 1 2 2-1v-1h2l1-1h1l4-3h4c1-2-1-1 1-1h1v-1l5-3h2l4-3h1c2-1 1-4 3-4h1l2-1 2-3 5-5 2-5 3-5 1-1c3-6 0 0 1-5 1-4 1 0 3-4v-2l2-2v-1h1l1-1 5-5c6-4-3 3 5-2l7-6h2l4-2 5-5 3-3 2-1v-2l1-1 1-3 1-1v-2c0-2 3-3 4-5 1-5 0-5 3-9 1-3 4-4 6-6l1-3c0-2 2 0 3-1v-1h2c2-3-4 1 1-2l2-1v-1l2-2 5-4v-1l1-1 3-5c0-2 2-2 3-4l2-4 1-1v-1l1-2 1-1v-2l2-3 1-4 3-5v-1l4-5v-3h1V63l-3-3h-2l-1-1-2-1c-3-2 0 0-1-2l-3-2v-1h-2l-1-1-5-2v-1h-5c-2-1 1-1-4-1z"/>
</svg>
